<?xml version="1.0" encoding="UTF-8" standalone="no"?>
<!DOCTYPE svg PUBLIC "-//W3C//DTD SVG 1.1//EN" "http://www.w3.org/Graphics/SVG/1.1/DTD/svg11.dtd">
<svg xmlns="http://www.w3.org/2000/svg" version="1.1" viewBox="0.00 0.00 512.00 109.00">
<path fill="#ff8400" d="
  M 105.31 82.68
  L 114.61 91.68
  A 0.32 0.31 -46.9 0 0 115.06 91.66
  C 134.79 70.35 135.69 39.03 115.99 17.18
  A 0.42 0.41 46.4 0 0 115.40 17.16
  L 76.38 55.26
  Q 76.00 55.63 75.62 55.26
  L 36.75 17.31
  A 0.72 0.72 0.0 0 0 35.70 17.36
  Q 15.55 41.49 24.36 70.72
  Q 27.43 80.90 36.65 91.42
  Q 37.11 91.94 37.61 91.46
  L 46.60 82.77
  Q 47.06 82.32 46.62 81.86
  C 34.71 69.26 32.10 51.13 39.85 35.65
  Q 39.98 35.38 40.19 35.59
  L 48.85 43.93
  Q 49.28 44.34 49.09 44.89
  C 44.12 59.95 51.58 74.70 65.88 80.67
  Q 66.36 80.87 65.99 81.23
  L 39.14 107.42
  Q 38.52 108.02 37.83 107.51
  C 16.78 91.80 5.95 66.40 11.67 40.38
  Q 16.93 16.42 36.70 1.33
  Q 37.03 1.08 37.33 1.37
  L 75.61 38.64
  Q 76.00 39.02 76.39 38.64
  L 114.53 1.51
  Q 114.99 1.06 115.51 1.46
  C 150.97 29.09 150.62 81.06 113.94 107.62
  A 0.75 0.74 48.9 0 1 112.99 107.55
  L 86.11 81.33
  Q 85.63 80.85 86.26 80.59
  C 100.59 74.59 107.87 59.69 102.91 44.80
  Q 102.75 44.30 103.12 43.94
  L 111.59 35.81
  Q 112.05 35.36 112.33 35.94
  C 119.45 51.02 117.47 67.03 107.19 79.91
  C 106.62 80.63 105.85 81.24 105.27 81.94
  Q 104.94 82.33 105.31 82.68
  Z"
/>
<path fill="#ffac52" d="
  M 179.21 44.93
  Q 178.79 44.35 178.79 45.07
  L 178.91 93.23
  Q 178.91 93.62 178.52 93.62
  L 162.98 93.65
  A 0.42 0.42 0.0 0 1 162.56 93.23
  L 162.57 15.37
  Q 162.57 14.95 162.99 14.95
  L 179.48 14.98
  Q 180.02 14.98 180.26 15.48
  L 209.47 77.80
  Q 209.82 78.56 210.18 77.80
  Q 224.93 46.16 239.40 15.41
  Q 239.60 14.98 240.07 14.98
  L 256.48 14.99
  A 0.50 0.49 0.0 0 1 256.98 15.48
  L 256.97 92.95
  Q 256.97 93.62 256.30 93.62
  L 241.20 93.65
  A 0.46 0.45 0.0 0 1 240.74 93.20
  L 240.75 45.71
  Q 240.75 43.88 239.99 45.54
  L 218.09 93.05
  Q 217.82 93.64 217.17 93.64
  L 202.53 93.69
  Q 201.80 93.69 201.49 93.02
  Q 190.75 69.74 179.94 46.26
  Q 179.53 45.37 179.21 44.93
  Z"
/>
<path fill="#ffac52" d="
  M 304.31 57.62
  C 303.76 48.85 294.66 48.13 288.15 49.73
  Q 283.50 50.88 282.60 54.50
  Q 282.46 55.06 281.88 55.06
  L 266.70 55.04
  Q 265.91 55.04 266.11 54.28
  Q 268.86 43.77 278.36 40.04
  C 282.65 38.35 286.95 37.44 291.61 37.41
  C 297.46 37.38 302.88 37.60 308.40 39.95
  Q 319.77 44.79 319.86 57.49
  Q 319.92 66.90 319.95 76.85
  Q 319.96 80.69 323.96 80.43
  Q 324.79 80.38 324.78 81.21
  L 324.74 93.07
  A 0.53 0.52 -1.8 0 1 324.24 93.59
  C 318.18 94.00 309.27 93.81 306.09 87.71
  A 0.41 0.41 0.0 0 0 305.42 87.62
  C 299.09 94.72 288.40 95.72 279.29 94.55
  C 269.91 93.34 262.61 86.84 263.56 76.97
  C 264.42 68.06 273.26 63.43 281.19 61.43
  Q 292.07 58.70 303.62 58.37
  Q 304.35 58.35 304.31 57.62
  Z
  M 303.47 68.20
  C 297.23 68.72 290.35 69.31 284.86 71.58
  C 280.72 73.29 277.16 79.14 282.71 82.03
  C 288.87 85.24 301.32 82.08 303.62 74.70
  Q 304.51 71.84 304.22 68.83
  Q 304.16 68.14 303.47 68.20
  Z"
/>
<path fill="#ffac52" d="
  M 459.96 71.65
  C 461.99 81.78 473.54 84.97 481.90 80.63
  Q 484.08 79.49 485.39 77.12
  A 1.01 1.00 -75.0 0 1 486.26 76.61
  L 501.26 76.62
  A 0.43 0.43 0.0 0 1 501.66 77.19
  C 499.75 82.51 496.27 87.81 491.12 90.69
  C 477.68 98.23 455.67 96.34 447.69 80.99
  Q 443.56 73.04 444.29 64.23
  Q 446.17 41.33 468.15 37.77
  Q 471.26 37.26 475.70 37.38
  C 489.61 37.74 499.58 45.76 502.15 59.57
  Q 503.03 64.32 502.49 70.48
  Q 502.44 70.98 501.94 70.98
  L 460.54 70.94
  Q 459.82 70.94 459.96 71.65
  Z
  M 460.40 60.43
  L 487.26 60.19
  A 0.16 0.16 0.0 0 0 487.41 60.03
  L 487.41 59.92
  A 13.48 10.19 -0.5 0 0 473.84 49.85
  L 473.62 49.85
  A 13.48 10.19 -0.5 0 0 460.23 60.16
  L 460.23 60.27
  A 0.16 0.16 0.0 0 0 460.40 60.43
  Z"
/>
<path fill="#ffac52" d="
  M 351.11 80.37
  L 384.56 80.35
  A 0.33 0.33 0.0 0 1 384.89 80.68
  L 384.88 93.29
  A 0.33 0.33 0.0 0 1 384.55 93.62
  L 330.08 93.68
  A 0.33 0.33 0.0 0 1 329.75 93.35
  L 329.75 80.46
  A 0.33 0.33 0.0 0 1 329.86 80.21
  L 361.38 52.56
  A 0.33 0.33 0.0 0 0 361.16 51.98
  L 331.67 52.05
  A 0.33 0.33 0.0 0 1 331.34 51.72
  L 331.34 38.99
  A 0.33 0.33 0.0 0 1 331.67 38.66
  L 382.82 38.73
  A 0.33 0.33 0.0 0 1 383.15 39.06
  L 383.10 51.32
  A 0.33 0.33 0.0 0 1 382.99 51.57
  L 350.89 79.79
  A 0.33 0.33 0.0 0 0 351.11 80.37
  Z"
/>
<path fill="#ffac52" d="
  M 419.66 51.99
  L 390.04 52.04
  A 0.31 0.31 0.0 0 1 389.73 51.73
  L 389.75 39.01
  A 0.31 0.31 0.0 0 1 390.06 38.70
  L 441.19 38.72
  A 0.31 0.31 0.0 0 1 441.50 39.03
  L 441.51 51.39
  A 0.31 0.31 0.0 0 1 441.40 51.62
  L 409.26 79.84
  A 0.31 0.31 0.0 0 0 409.46 80.38
  L 442.95 80.35
  A 0.31 0.31 0.0 0 1 443.26 80.66
  L 443.25 93.34
  A 0.31 0.31 0.0 0 1 442.94 93.65
  L 388.53 93.66
  A 0.31 0.31 0.0 0 1 388.22 93.35
  L 388.23 80.41
  A 0.31 0.31 0.0 0 1 388.34 80.18
  L 419.87 52.53
  A 0.31 0.31 0.0 0 0 419.66 51.99
  Z"
/>
</svg>
