<?xml version="1.0" encoding="UTF-8" standalone="no"?>
<!DOCTYPE svg PUBLIC "-//W3C//DTD SVG 1.1//EN" "http://www.w3.org/Graphics/SVG/1.1/DTD/svg11.dtd">
<svg xmlns="http://www.w3.org/2000/svg" version="1.1" viewBox="0.00 0.00 512.00 109.00">
<path fill="#ffffff" d="
  M 105.41 82.79
  L 114.36 91.45
  Q 114.86 91.92 115.32 91.42
  C 134.85 70.25 135.50 38.90 116.09 17.29
  A 0.56 0.55 46.8 0 0 115.29 17.26
  L 76.44 55.19
  Q 76.00 55.62 75.56 55.19
  L 36.73 17.28
  Q 36.29 16.85 35.89 17.31
  C 16.43 39.06 17.19 70.05 36.74 91.51
  Q 37.13 91.94 37.55 91.53
  L 46.49 82.88
  Q 46.98 82.41 46.53 81.90
  Q 28.58 61.32 39.63 35.80
  Q 39.86 35.28 40.27 35.67
  L 48.85 43.94
  Q 49.26 44.33 49.09 44.86
  C 44.61 58.98 50.30 72.22 62.95 79.33
  C 63.82 79.82 64.84 80.20 65.77 80.50
  Q 66.49 80.74 65.95 81.26
  L 38.92 107.62
  A 0.60 0.59 40.1 0 1 38.16 107.68
  C 1.49 81.18 0.91 29.15 36.50 1.46
  Q 37.01 1.06 37.46 1.51
  L 75.61 38.64
  Q 76.00 39.03 76.39 38.65
  L 114.65 1.40
  A 0.54 0.54 0.0 0 1 115.36 1.36
  C 151.15 28.86 150.44 81.10 113.97 107.60
  A 0.78 0.77 -40.6 0 1 112.98 107.53
  L 86.01 81.22
  Q 85.60 80.82 86.13 80.61
  C 100.66 74.88 107.68 59.73 102.93 44.80
  Q 102.77 44.30 103.15 43.93
  L 111.58 35.82
  Q 112.03 35.39 112.30 35.95
  C 120.13 51.67 116.94 69.09 105.38 81.96
  A 0.60 0.60 0.0 0 0 105.41 82.79
  Z"
/>
<path fill="#ffffff" d="
  M 179.27 45.03
  Q 178.79 44.28 178.79 45.18
  L 178.92 92.98
  Q 178.92 93.63 178.27 93.63
  L 162.99 93.64
  A 0.41 0.41 0.0 0 1 162.58 93.23
  L 162.59 15.52
  Q 162.59 14.97 163.13 14.97
  L 179.48 14.98
  Q 180.02 14.98 180.25 15.47
  L 209.42 77.73
  Q 209.81 78.54 210.19 77.73
  L 239.30 15.56
  A 1.00 0.97 12.0 0 1 240.20 14.99
  L 256.57 14.99
  A 0.39 0.38 -0.0 0 1 256.96 15.37
  L 256.96 93.20
  A 0.42 0.41 -90.0 0 1 256.55 93.62
  L 241.44 93.65
  A 0.71 0.70 -90.0 0 1 240.74 92.94
  L 240.75 46.45
  Q 240.75 43.87 239.68 46.21
  L 218.07 93.09
  A 1.01 1.01 0.0 0 1 217.15 93.68
  L 202.28 93.66
  A 0.73 0.72 76.8 0 1 201.63 93.25
  Q 191.33 71.13 180.39 47.09
  Q 179.87 45.96 179.27 45.03
  Z"
/>
<path fill="#ffffff" d="
  M 459.95 71.72
  C 461.64 79.82 469.08 83.33 476.95 82.25
  Q 482.87 81.44 485.37 77.14
  Q 485.68 76.61 486.29 76.61
  L 501.02 76.64
  Q 501.90 76.64 501.57 77.45
  Q 497.98 86.44 492.08 90.12
  C 481.44 96.74 465.00 96.82 454.92 89.25
  Q 446.38 82.84 444.70 72.09
  C 441.24 49.84 456.37 34.88 478.79 37.66
  C 496.08 39.80 504.55 53.89 502.43 70.43
  Q 502.36 70.99 501.79 70.99
  L 460.56 70.96
  Q 459.79 70.96 459.95 71.72
  Z
  M 460.41 60.41
  L 487.25 60.17
  A 0.15 0.15 0.0 0 0 487.39 60.02
  L 487.39 59.93
  A 13.47 10.22 -0.5 0 0 473.83 49.83
  L 473.63 49.83
  A 13.47 10.22 -0.5 0 0 460.25 60.17
  L 460.25 60.26
  A 0.15 0.15 0.0 0 0 460.41 60.41
  Z"
/>
<path fill="#ffffff" d="
  M 304.29 57.61
  Q 303.91 51.26 298.16 49.74
  C 293.59 48.54 284.03 48.60 282.60 54.50
  Q 282.47 55.05 281.90 55.05
  L 266.71 55.03
  A 0.62 0.62 0.0 0 1 266.11 54.26
  Q 268.95 43.27 279.54 39.57
  Q 288.88 36.30 300.84 37.88
  C 312.05 39.36 319.91 45.95 319.91 57.92
  Q 319.92 67.79 320.00 77.80
  A 2.51 2.50 2.3 0 0 322.29 80.27
  L 324.28 80.44
  Q 324.81 80.48 324.81 81.02
  L 324.73 93.01
  Q 324.73 93.54 324.19 93.58
  C 318.01 94.02 309.28 93.82 305.99 87.57
  A 0.28 0.28 0.0 0 0 305.53 87.51
  C 298.51 95.32 286.49 96.03 276.66 94.04
  C 263.86 91.44 258.22 75.39 269.24 67.01
  C 278.13 60.25 291.58 58.89 303.64 58.32
  Q 304.33 58.29 304.29 57.61
  Z
  M 303.39 68.20
  C 297.12 68.93 287.51 69.10 282.42 73.15
  C 279.96 75.11 278.53 79.15 281.63 81.35
  C 286.96 85.11 294.87 83.12 299.85 79.64
  Q 304.80 76.18 304.23 68.88
  Q 304.17 68.11 303.39 68.20
  Z"
/>
<path fill="#ffffff" d="
  M 351.10 80.37
  L 384.58 80.33
  A 0.33 0.33 0.0 0 1 384.91 80.66
  L 384.86 93.29
  A 0.33 0.33 0.0 0 1 384.53 93.62
  L 330.08 93.64
  A 0.33 0.33 0.0 0 1 329.75 93.31
  L 329.75 80.47
  A 0.33 0.33 0.0 0 1 329.86 80.22
  L 361.40 52.56
  A 0.33 0.33 0.0 0 0 361.18 51.98
  L 331.67 52.04
  A 0.33 0.33 0.0 0 1 331.34 51.71
  L 331.34 39.04
  A 0.33 0.33 0.0 0 1 331.67 38.71
  L 382.81 38.73
  A 0.33 0.33 0.0 0 1 383.14 39.06
  L 383.08 51.34
  A 0.33 0.33 0.0 0 1 382.97 51.59
  L 350.88 79.79
  A 0.33 0.33 0.0 0 0 351.10 80.37
  Z"
/>
<path fill="#ffffff" d="
  M 409.47 80.38
  L 442.93 80.33
  A 0.31 0.31 0.0 0 1 443.24 80.64
  L 443.26 93.31
  A 0.31 0.31 0.0 0 1 442.95 93.62
  L 388.55 93.63
  A 0.31 0.31 0.0 0 1 388.24 93.32
  L 388.22 80.43
  A 0.31 0.31 0.0 0 1 388.33 80.20
  L 419.87 52.53
  A 0.31 0.31 0.0 0 0 419.66 51.99
  L 390.05 52.03
  A 0.31 0.31 0.0 0 1 389.74 51.72
  L 389.75 39.03
  A 0.31 0.31 0.0 0 1 390.06 38.72
  L 441.18 38.71
  A 0.31 0.31 0.0 0 1 441.49 39.02
  L 441.52 51.39
  A 0.31 0.31 0.0 0 1 441.41 51.62
  L 409.26 79.84
  A 0.31 0.31 0.0 0 0 409.47 80.38
  Z"
/>
</svg>
