<?xml version="1.0" encoding="UTF-8" standalone="no"?>
<!DOCTYPE svg PUBLIC "-//W3C//DTD SVG 1.1//EN" "http://www.w3.org/Graphics/SVG/1.1/DTD/svg11.dtd">
<svg xmlns="http://www.w3.org/2000/svg" version="1.1" viewBox="0.00 0.00 512.00 109.00">
<path fill="#ff8400" d="
  M 105.40 82.76
  L 114.61 91.68
  A 0.33 0.33 0.0 0 0 115.08 91.66
  C 134.81 70.22 135.66 38.99 115.99 17.18
  A 0.42 0.41 46.4 0 0 115.40 17.16
  L 76.44 55.20
  Q 76.00 55.63 75.56 55.20
  L 36.75 17.31
  A 0.72 0.71 -47.9 0 0 35.70 17.37
  Q 15.51 41.49 24.40 70.85
  Q 27.45 80.93 36.65 91.42
  Q 37.11 91.95 37.61 91.46
  L 46.60 82.76
  Q 47.06 82.32 46.62 81.87
  C 34.73 69.25 32.07 51.06 39.85 35.65
  Q 39.98 35.38 40.19 35.59
  L 48.85 43.93
  Q 49.27 44.33 49.09 44.89
  C 44.13 59.95 51.56 74.69 65.88 80.67
  Q 66.36 80.87 65.99 81.23
  L 39.15 107.41
  A 1.05 1.04 -48.4 0 1 37.79 107.50
  C 16.61 91.57 5.82 66.06 11.75 39.91
  Q 17.11 16.28 36.76 1.28
  Q 37.03 1.08 37.26 1.31
  L 75.61 38.64
  Q 76.00 39.02 76.39 38.64
  L 114.53 1.51
  Q 114.99 1.06 115.50 1.45
  C 150.97 29.09 150.62 81.06 113.94 107.62
  A 0.75 0.74 48.9 0 1 112.99 107.55
  L 86.12 81.33
  Q 85.60 80.83 86.27 80.56
  C 100.55 74.72 107.88 59.59 102.91 44.81
  Q 102.75 44.31 103.13 43.94
  L 111.58 35.81
  Q 112.03 35.38 112.31 35.94
  C 119.78 51.42 117.26 69.48 105.38 81.84
  Q 104.93 82.31 105.40 82.76
  Z"
/>
<path fill="#ffffff" d="
  M 179.27 45.03
  Q 178.79 44.30 178.79 45.18
  L 178.92 92.98
  Q 178.92 93.63 178.27 93.63
  L 162.99 93.65
  A 0.41 0.41 0.0 0 1 162.58 93.24
  L 162.58 15.23
  A 0.28 0.28 0.0 0 1 162.86 14.95
  L 179.49 14.99
  Q 180.02 14.99 180.25 15.48
  L 209.42 77.73
  Q 209.81 78.54 210.19 77.73
  L 239.29 15.56
  Q 239.56 14.99 240.20 14.99
  L 256.57 14.99
  A 0.39 0.38 -0.0 0 1 256.96 15.37
  L 256.96 93.20
  A 0.42 0.41 -90.0 0 1 256.55 93.62
  L 241.44 93.65
  A 0.71 0.70 -90.0 0 1 240.74 92.94
  L 240.75 46.45
  Q 240.75 43.87 239.68 46.21
  L 218.07 93.09
  A 1.01 1.01 0.0 0 1 217.15 93.68
  L 202.28 93.66
  A 0.71 0.70 77.5 0 1 201.64 93.25
  Q 191.25 71.00 180.38 47.03
  Q 179.88 45.95 179.27 45.03
  Z"
/>
<path fill="#ffffff" d="
  M 459.95 71.72
  C 461.64 79.82 469.08 83.33 476.95 82.25
  Q 482.87 81.44 485.37 77.14
  Q 485.68 76.61 486.29 76.61
  L 501.02 76.64
  Q 501.90 76.64 501.57 77.45
  Q 497.98 86.44 492.08 90.12
  C 481.44 96.74 465.00 96.82 454.92 89.25
  Q 446.38 82.84 444.70 72.09
  C 441.24 49.84 456.37 34.88 478.79 37.66
  C 496.08 39.80 504.55 53.89 502.43 70.43
  Q 502.36 70.99 501.79 70.99
  L 460.56 70.96
  Q 459.79 70.96 459.95 71.72
  Z
  M 460.41 60.41
  L 487.25 60.17
  A 0.15 0.15 0.0 0 0 487.39 60.02
  L 487.39 59.93
  A 13.47 10.22 -0.5 0 0 473.83 49.83
  L 473.63 49.83
  A 13.47 10.22 -0.5 0 0 460.25 60.17
  L 460.25 60.26
  A 0.15 0.15 0.0 0 0 460.41 60.41
  Z"
/>
<path fill="#ffffff" d="
  M 304.29 57.61
  Q 303.91 51.26 298.16 49.74
  C 293.59 48.54 284.03 48.60 282.60 54.50
  Q 282.47 55.05 281.90 55.05
  L 266.71 55.03
  A 0.62 0.62 0.0 0 1 266.11 54.26
  Q 268.95 43.27 279.54 39.57
  Q 288.88 36.30 300.84 37.88
  C 312.05 39.36 319.91 45.95 319.91 57.92
  Q 319.92 67.79 320.00 77.80
  A 2.51 2.50 2.3 0 0 322.29 80.27
  L 324.28 80.44
  Q 324.81 80.48 324.81 81.02
  L 324.73 93.01
  Q 324.73 93.54 324.19 93.58
  C 318.01 94.02 309.28 93.82 305.99 87.57
  A 0.28 0.28 0.0 0 0 305.53 87.51
  C 298.51 95.32 286.49 96.03 276.66 94.04
  C 263.86 91.44 258.22 75.39 269.24 67.01
  C 278.13 60.25 291.58 58.89 303.64 58.32
  Q 304.33 58.29 304.29 57.61
  Z
  M 303.39 68.20
  C 297.12 68.93 287.51 69.10 282.42 73.15
  C 279.96 75.11 278.53 79.15 281.63 81.35
  C 286.96 85.11 294.87 83.12 299.85 79.64
  Q 304.80 76.18 304.23 68.88
  Q 304.17 68.11 303.39 68.20
  Z"
/>
<path fill="#ffffff" d="
  M 351.10 80.37
  L 384.58 80.33
  A 0.33 0.33 0.0 0 1 384.91 80.66
  L 384.86 93.29
  A 0.33 0.33 0.0 0 1 384.53 93.62
  L 330.08 93.64
  A 0.33 0.33 0.0 0 1 329.75 93.31
  L 329.75 80.47
  A 0.33 0.33 0.0 0 1 329.86 80.22
  L 361.40 52.56
  A 0.33 0.33 0.0 0 0 361.18 51.98
  L 331.67 52.04
  A 0.33 0.33 0.0 0 1 331.34 51.71
  L 331.34 39.04
  A 0.33 0.33 0.0 0 1 331.67 38.71
  L 382.81 38.73
  A 0.33 0.33 0.0 0 1 383.14 39.06
  L 383.08 51.34
  A 0.33 0.33 0.0 0 1 382.97 51.59
  L 350.88 79.79
  A 0.33 0.33 0.0 0 0 351.10 80.37
  Z"
/>
<path fill="#ffffff" d="
  M 409.47 80.38
  L 442.93 80.33
  A 0.31 0.31 0.0 0 1 443.24 80.64
  L 443.26 93.31
  A 0.31 0.31 0.0 0 1 442.95 93.62
  L 388.55 93.63
  A 0.31 0.31 0.0 0 1 388.24 93.32
  L 388.22 80.43
  A 0.31 0.31 0.0 0 1 388.33 80.20
  L 419.87 52.53
  A 0.31 0.31 0.0 0 0 419.66 51.99
  L 390.05 52.03
  A 0.31 0.31 0.0 0 1 389.74 51.72
  L 389.75 39.03
  A 0.31 0.31 0.0 0 1 390.06 38.72
  L 441.18 38.71
  A 0.31 0.31 0.0 0 1 441.49 39.02
  L 441.52 51.39
  A 0.31 0.31 0.0 0 1 441.41 51.62
  L 409.26 79.84
  A 0.31 0.31 0.0 0 0 409.47 80.38
  Z"
/>
</svg>
