<?xml version="1.0" encoding="UTF-8" standalone="no"?>
<!DOCTYPE svg PUBLIC "-//W3C//DTD SVG 1.1//EN" "http://www.w3.org/Graphics/SVG/1.1/DTD/svg11.dtd">
<svg xmlns="http://www.w3.org/2000/svg" version="1.1" viewBox="0.00 0.00 400.00 400.00">
<path fill="#ff8400" d="
  M 200.31 154.56
  L 312.89 44.59
  Q 313.25 44.24 313.65 44.54
  C 355.05 75.18 382.59 121.25 389.56 172.26
  Q 390.27 177.46 390.96 183.11
  C 392.61 196.56 391.76 210.06 389.61 224.85
  C 381.89 277.86 353.18 325.12 309.26 355.55
  Q 308.85 355.84 308.49 355.49
  L 228.13 277.08
  A 0.20 0.20 0.0 0 1 228.20 276.75
  Q 263.40 262.82 277.12 228.73
  C 283.24 213.51 284.34 195.71 280.53 179.71
  Q 279.49 175.35 278.01 170.95
  Q 277.80 170.34 278.26 169.90
  L 304.38 144.62
  Q 304.77 144.25 305.01 144.73
  C 328.14 190.15 319.86 244.08 284.65 280.81
  Q 284.29 281.19 284.66 281.55
  L 312.61 308.73
  A 0.33 0.33 0.0 0 0 313.07 308.72
  Q 347.81 272.39 355.88 223.75
  C 363.90 175.45 348.85 127.08 315.98 90.93
  Q 315.47 90.38 314.94 90.90
  L 200.25 203.05
  Q 200.00 203.29 199.75 203.05
  L 85.05 90.89
  A 0.70 0.69 43.0 0 0 84.05 90.92
  Q 50.29 128.03 43.49 176.99
  Q 42.06 187.32 42.06 197.29
  C 42.05 239.74 57.72 277.84 86.73 308.57
  Q 87.13 308.99 87.54 308.59
  L 115.33 281.55
  Q 115.71 281.18 115.34 280.79
  Q 89.52 253.33 83.77 219.02
  Q 77.24 180.09 94.99 144.68
  A 0.37 0.36 35.6 0 1 95.57 144.59
  L 121.74 169.90
  Q 122.10 170.24 121.98 170.72
  C 121.18 174.07 119.86 177.32 119.16 180.78
  Q 113.02 211.04 126.84 237.29
  C 136.30 255.27 152.00 269.28 171.44 276.52
  Q 172.17 276.79 171.61 277.33
  L 91.52 355.49
  Q 91.20 355.80 90.83 355.54
  Q 69.44 340.86 52.88 320.86
  Q 23.25 285.07 13.02 239.50
  Q 9.96 225.83 8.54 207.72
  Q 7.88 199.28 8.51 189.03
  Q 9.06 180.20 11.68 164.64
  C 19.68 117.07 47.25 73.66 86.33 44.53
  Q 86.74 44.23 87.10 44.58
  L 199.69 154.56
  Q 200.00 154.86 200.31 154.56
  Z"
/>
</svg>
