<?xml version="1.0" encoding="UTF-8" standalone="no"?>
<!DOCTYPE svg PUBLIC "-//W3C//DTD SVG 1.1//EN" "http://www.w3.org/Graphics/SVG/1.1/DTD/svg11.dtd">
<svg xmlns="http://www.w3.org/2000/svg" version="1.1" viewBox="0.00 0.00 128.00 128.00">
<path fill="#ff8400" d="
  M 100.54 98.54
  Q 111.93 86.26 114.06 70.22
  Q 117.06 47.72 101.43 29.26
  Q 101.06 28.82 100.65 29.22
  L 64.38 64.63
  Q 64.00 65.00 63.62 64.63
  L 27.34 29.21
  Q 26.92 28.80 26.55 29.25
  C 8.70 50.50 9.11 77.96 27.45 98.55
  Q 27.84 98.98 28.25 98.57
  L 36.68 90.34
  Q 37.09 89.94 36.69 89.54
  Q 33.85 86.72 31.89 83.42
  Q 21.61 66.10 29.99 47.01
  Q 30.39 46.10 31.10 46.79
  L 38.62 54.08
  A 0.95 0.94 -59.9 0 1 38.87 55.04
  C 34.62 69.00 40.99 82.87 54.49 88.38
  A 0.41 0.41 0.0 0 1 54.62 89.05
  L 29.45 113.54
  Q 29.07 113.90 28.65 113.59
  Q 9.49 99.44 4.22 76.79
  Q 2.03 67.40 2.52 60.49
  Q 2.69 58.06 3.83 52.13
  C 6.76 36.94 15.02 23.86 27.37 14.41
  Q 27.75 14.12 28.10 14.45
  L 63.77 49.41
  Q 63.99 49.64 64.22 49.41
  L 100.02 14.34
  Q 100.25 14.12 100.51 14.31
  Q 119.01 28.46 124.02 51.25
  Q 126.02 60.34 125.39 66.83
  C 123.55 85.94 114.99 102.25 99.30 113.59
  Q 98.90 113.87 98.55 113.53
  L 73.41 89.07
  Q 72.92 88.59 73.56 88.33
  C 86.94 83.06 93.46 68.74 89.09 55.02
  Q 88.93 54.52 89.30 54.16
  L 97.08 46.56
  Q 97.53 46.13 97.79 46.69
  C 104.80 61.30 102.39 77.77 91.31 89.59
  Q 90.94 89.98 91.32 90.35
  L 99.73 98.56
  Q 100.15 98.97 100.54 98.54
  Z"
/>
</svg>
