<?xml version="1.0" encoding="UTF-8" standalone="no"?>
<!DOCTYPE svg PUBLIC "-//W3C//DTD SVG 1.1//EN" "http://www.w3.org/Graphics/SVG/1.1/DTD/svg11.dtd">
<svg xmlns="http://www.w3.org/2000/svg" version="1.1" viewBox="0.00 0.00 400.00 400.00">
<path fill="#000520" d="
  M 284.69 281.55
  L 312.58 308.68
  Q 312.83 308.92 313.07 308.67
  C 337.65 283.04 353.43 250.47 357.00 215.28
  Q 360.46 181.24 350.35 149.84
  Q 339.75 116.93 315.75 90.74
  Q 315.46 90.41 315.15 90.72
  L 200.27 203.06
  A 0.39 0.39 0.0 0 1 199.73 203.06
  L 85.08 90.95
  Q 84.52 90.40 84.00 90.98
  Q 52.63 125.53 44.58 170.31
  Q 40.14 195.00 43.50 219.29
  Q 50.64 270.90 86.96 308.69
  Q 87.18 308.91 87.41 308.69
  L 115.42 281.44
  Q 115.69 281.17 115.42 280.89
  C 80.00 244.20 72.00 190.31 94.89 144.85
  Q 95.21 144.21 95.73 144.71
  L 121.76 169.89
  Q 122.20 170.31 122.01 170.89
  Q 120.92 174.18 120.08 177.37
  C 115.60 194.30 116.46 212.77 122.96 228.86
  Q 136.66 262.81 171.75 276.71
  A 0.26 0.26 0.0 0 1 171.84 277.13
  L 91.26 355.76
  A 0.19 0.19 0.0 0 1 91.02 355.78
  C 44.57 323.59 14.73 272.54 9.40 216.16
  Q 9.36 215.68 9.06 215.29
  Q 8.90 215.08 8.88 214.82
  Q 7.55 199.54 8.86 182.46
  Q 8.89 182.02 9.11 181.69
  Q 9.34 181.31 9.38 180.87
  Q 13.37 139.02 34.04 103.18
  Q 54.12 68.38 86.34 44.52
  Q 86.75 44.21 87.12 44.57
  L 199.71 154.55
  Q 200.00 154.83 200.29 154.55
  L 312.87 44.59
  Q 313.28 44.19 313.73 44.53
  C 356.87 76.65 384.40 124.47 390.32 178.01
  Q 390.51 179.76 390.45 180.87
  Q 390.43 181.23 390.67 181.49
  Q 390.80 181.63 390.98 181.70
  Q 391.16 181.78 391.17 181.98
  Q 392.30 198.21 391.21 214.74
  Q 391.19 214.98 391.06 215.17
  Q 390.99 215.28 390.87 215.35
  Q 390.63 215.50 390.60 215.79
  C 385.45 272.40 355.69 322.99 309.32 355.58
  Q 308.88 355.90 308.49 355.52
  L 228.16 277.13
  A 0.26 0.25 -33.7 0 1 228.25 276.71
  Q 263.49 262.69 277.10 228.71
  C 283.33 213.14 284.39 195.04 280.28 178.80
  Q 279.26 174.79 277.99 170.91
  Q 277.80 170.32 278.25 169.89
  L 304.40 144.57
  A 0.40 0.40 0.0 0 1 305.03 144.68
  Q 323.04 180.58 316.07 220.17
  C 312.07 242.92 300.68 264.36 284.68 280.74
  Q 284.28 281.15 284.69 281.55
  Z"
/>
</svg>
