<?xml version="1.0" encoding="UTF-8" standalone="no"?>
<!DOCTYPE svg PUBLIC "-//W3C//DTD SVG 1.1//EN" "http://www.w3.org/Graphics/SVG/1.1/DTD/svg11.dtd">
<svg xmlns="http://www.w3.org/2000/svg" version="1.1" viewBox="0.00 0.00 772.00 234.00">
<path fill="#ffffff" d="
  M 103.17 92.21
  L 156.78 39.85
  Q 157.17 39.47 157.46 39.01
  L 157.78 38.52
  Q 158.08 38.05 158.50 38.41
  C 162.32 41.75 166.38 44.93 169.94 48.69
  C 205.74 86.43 205.16 144.14 167.94 180.74
  C 164.25 184.37 160.39 187.29 156.41 190.57
  Q 155.97 190.93 155.63 190.47
  C 155.22 189.90 154.87 189.37 154.36 188.87
  Q 135.68 170.65 117.00 152.44
  Q 116.45 151.90 117.18 151.66
  Q 119.79 150.77 122.26 149.34
  C 139.64 139.31 147.61 119.65 141.06 100.56
  A 0.95 0.94 -31.8 0 1 141.30 99.58
  L 153.65 87.68
  A 0.41 0.41 0.0 0 1 154.30 87.79
  C 165.31 109.96 161.42 135.32 144.65 153.46
  Q 144.02 154.14 144.69 154.79
  L 157.91 167.53
  A 0.16 0.16 0.0 0 0 158.14 167.53
  C 186.78 137.50 187.31 92.32 159.68 61.40
  Q 159.29 60.96 158.87 61.37
  L 103.33 115.65
  Q 102.93 116.05 102.52 115.66
  L 47.03 61.43
  A 0.66 0.65 42.9 0 0 46.09 61.46
  C 18.68 92.02 18.99 137.42 47.51 167.28
  Q 47.86 167.65 48.23 167.30
  L 61.58 154.35
  Q 61.91 154.02 61.58 153.69
  Q 53.37 145.62 49.12 134.28
  Q 40.46 111.13 51.48 87.75
  A 0.39 0.39 0.0 0 1 52.10 87.63
  L 64.39 99.42
  A 1.37 1.36 32.0 0 1 64.73 100.88
  C 58.48 118.10 65.40 136.54 79.86 147.06
  C 82.50 148.97 85.66 150.43 88.64 151.75
  Q 89.25 152.02 88.77 152.48
  L 50.00 190.33
  Q 49.69 190.63 49.34 190.38
  Q 22.26 170.66 13.07 139.23
  Q 10.21 129.45 10.03 119.98
  C 9.86 110.95 9.75 101.50 11.86 92.75
  Q 19.52 60.95 45.25 40.26
  Q 46.26 39.45 47.12 38.46
  Q 47.52 38.01 47.92 38.45
  C 48.63 39.23 49.29 40.10 50.05 40.84
  Q 75.73 65.88 102.65 92.21
  Q 102.91 92.47 103.17 92.21
  Z"
/>
<path fill="#ffffff" d="
  M 391.40 101.75
  Q 391.40 100.35 390.79 101.68
  L 359.40 170.34
  Q 359.21 170.76 358.75 170.76
  L 337.54 170.73
  A 1.19 1.19 0.0 0 1 336.46 170.04
  L 305.21 101.65
  Q 305.06 101.33 304.77 101.53
  Q 304.56 101.67 304.56 102.00
  Q 304.81 136.10 304.57 170.19
  Q 304.57 170.74 304.01 170.74
  L 282.50 170.73
  Q 281.76 170.73 281.76 169.99
  L 281.76 59.77
  A 0.36 0.35 -0.8 0 1 282.11 59.42
  L 305.29 59.35
  Q 306.26 59.34 306.67 60.22
  L 347.63 148.40
  A 0.42 0.42 0.0 0 0 348.39 148.40
  L 389.44 59.96
  A 1.07 1.06 -77.2 0 1 390.40 59.35
  L 413.70 59.47
  A 0.40 0.36 -90.0 0 1 414.06 59.87
  L 414.02 170.23
  A 0.51 0.51 0.0 0 1 413.51 170.74
  L 392.29 170.72
  A 0.93 0.93 0.0 0 1 391.36 169.79
  L 391.40 101.75
  Z"
/>
<path fill="#ffffff" d="
  M 481.96 162.25
  Q 474.73 170.47 461.32 172.07
  C 445.64 173.93 425.10 170.72 423.28 151.14
  C 420.85 124.86 462.11 121.47 479.63 120.72
  A 0.84 0.84 0.0 0 0 480.44 119.84
  Q 479.99 110.04 470.51 108.22
  C 464.03 106.98 455.14 107.45 450.78 112.98
  Q 450.43 113.42 450.37 113.98
  L 450.20 115.50
  Q 450.13 116.14 449.49 116.14
  L 427.48 116.11
  A 0.71 0.71 0.0 0 1 426.79 115.21
  Q 430.26 102.62 439.39 97.22
  C 449.75 91.08 462.83 90.10 474.94 91.69
  C 491.29 93.84 502.62 103.08 502.40 120.68
  Q 502.23 133.79 502.62 148.10
  C 502.72 151.87 505.71 151.80 508.54 151.90
  Q 509.08 151.92 509.08 152.46
  L 509.15 170.04
  Q 509.15 170.59 508.60 170.61
  Q 501.77 170.95 494.45 169.84
  Q 486.48 168.62 482.90 162.35
  Q 482.49 161.64 481.96 162.25
  Z
  M 479.55 134.69
  C 471.42 135.26 462.22 136.27 454.46 138.97
  C 445.33 142.14 441.94 153.53 454.49 155.72
  C 461.64 156.97 468.95 154.80 474.69 150.52
  Q 481.25 145.64 480.26 135.29
  Q 480.20 134.64 479.55 134.69
  Z"
/>
<path fill="#ffffff" d="
  M 699.51 138.54
  Q 698.40 138.54 698.66 139.62
  Q 701.18 150.32 710.96 153.60
  Q 718.50 156.14 726.78 153.47
  C 730.14 152.39 732.73 149.94 734.67 147.07
  A 0.74 0.73 -72.8 0 1 735.28 146.74
  L 756.57 146.54
  A 0.54 0.52 -81.2 0 1 757.07 147.24
  Q 751.15 165.37 732.85 170.58
  Q 721.94 173.68 709.80 171.90
  C 693.33 169.47 680.55 157.98 677.48 141.51
  C 675.67 131.78 676.54 120.62 680.99 111.72
  C 689.39 94.94 706.66 89.48 724.55 91.37
  C 742.14 93.22 754.44 104.31 757.74 121.89
  Q 759.13 129.25 758.32 138.01
  Q 758.27 138.54 757.73 138.54
  L 699.51 138.54
  Z
  M 699.27 123.65
  L 736.96 123.33
  A 0.15 0.15 0.0 0 0 737.11 123.17
  L 737.11 123.07
  A 18.49 14.49 -0.5 0 0 718.50 108.75
  L 717.48 108.75
  A 18.49 14.49 -0.5 0 0 699.11 123.41
  L 699.11 123.51
  A 0.15 0.15 0.0 0 0 699.27 123.65
  Z"
/>
<path fill="#ffffff" d="
  M 560.46 112.56
  Q 561.36 111.76 560.15 111.76
  L 518.92 111.76
  Q 518.33 111.76 518.33 111.17
  L 518.35 93.55
  Q 518.35 92.96 518.95 92.96
  L 589.73 92.97
  A 1.14 1.14 0.0 0 1 590.87 94.06
  Q 591.21 102.28 590.88 109.24
  Q 590.79 111.18 589.23 112.56
  Q 568.74 130.76 547.68 149.41
  Q 547.06 149.96 546.36 150.41
  Q 544.26 151.78 546.76 151.78
  L 592.95 151.77
  A 0.43 0.43 0.0 0 1 593.38 152.20
  L 593.30 169.83
  A 0.88 0.88 0.0 0 1 592.42 170.71
  L 516.99 170.76
  A 0.77 0.77 0.0 0 1 516.22 169.99
  L 516.23 152.74
  Q 516.23 151.69 517.01 150.99
  L 560.46 112.56
  Z"
/>
<path fill="#ffffff" d="
  M 642.50 112.47
  Q 643.30 111.76 642.23 111.76
  L 600.89 111.76
  Q 600.26 111.76 600.26 111.14
  L 600.25 93.45
  Q 600.25 92.89 600.80 92.89
  L 672.20 93.00
  Q 672.77 93.00 672.77 93.57
  L 672.76 110.51
  Q 672.76 111.06 672.35 111.43
  Q 651.77 129.86 628.96 149.96
  Q 628.38 150.47 627.70 150.74
  A 0.51 0.51 0.0 0 0 627.44 151.45
  Q 627.63 151.79 628.00 151.79
  Q 651.50 151.75 674.94 151.79
  A 0.21 0.21 0.0 0 1 675.15 152.00
  L 675.23 170.24
  A 0.47 0.47 0.0 0 1 674.76 170.72
  L 598.78 170.75
  A 0.73 0.72 -0.0 0 1 598.05 170.03
  L 598.05 153.00
  Q 598.05 151.78 598.97 150.97
  L 642.50 112.47
  Z"
/>
</svg>
