<?xml version="1.0" encoding="UTF-8" standalone="no"?>
<!DOCTYPE svg PUBLIC "-//W3C//DTD SVG 1.1//EN" "http://www.w3.org/Graphics/SVG/1.1/DTD/svg11.dtd">
<svg xmlns="http://www.w3.org/2000/svg" version="1.1" viewBox="0.00 0.00 400.00 400.00">
<path fill="#ffffff" d="
  M 115.33 280.82
  Q 83.59 247.28 82.09 202.12
  C 81.43 182.20 85.91 162.56 95.01 144.71
  Q 95.24 144.27 95.59 144.61
  L 121.74 169.90
  Q 122.16 170.32 121.97 170.88
  Q 112.20 200.00 122.60 228.02
  C 131.02 250.69 149.09 268.00 171.72 276.66
  A 0.28 0.28 0.0 0 1 171.82 277.12
  L 91.48 355.51
  Q 91.11 355.87 90.69 355.58
  C 47.61 325.45 18.45 278.86 10.76 226.81
  Q 9.84 220.56 9.06 214.32
  Q 8.29 208.14 8.28 201.90
  C 8.26 195.84 8.18 190.20 8.93 184.07
  Q 10.31 172.72 10.90 168.95
  C 18.71 119.01 45.99 74.39 86.55 44.37
  Q 86.73 44.23 86.89 44.39
  L 199.56 154.44
  Q 200.00 154.87 200.44 154.44
  L 312.89 44.60
  Q 313.26 44.24 313.68 44.55
  C 354.51 74.78 381.89 120.12 389.26 170.24
  Q 390.21 176.69 390.96 183.13
  C 392.64 197.51 391.53 212.26 389.26 227.01
  C 381.18 279.42 352.49 325.21 309.27 355.60
  Q 308.89 355.87 308.55 355.54
  L 228.26 277.19
  Q 227.89 276.83 228.37 276.64
  Q 260.00 264.29 274.57 234.59
  C 282.44 218.55 284.62 199.77 281.13 182.31
  Q 280.34 178.33 278.03 170.84
  Q 277.86 170.30 278.27 169.90
  L 304.40 144.61
  A 0.40 0.39 -35.6 0 1 305.02 144.71
  C 328.00 190.31 319.99 244.36 284.41 281.03
  A 0.20 0.20 0.0 0 0 284.41 281.31
  L 312.60 308.73
  A 0.35 0.35 0.0 0 0 313.09 308.72
  Q 349.16 270.88 356.40 220.29
  C 363.17 173.02 348.10 126.32 315.99 90.93
  Q 315.48 90.36 314.94 90.90
  L 200.14 203.14
  A 0.20 0.20 0.0 0 1 199.86 203.14
  L 84.75 90.59
  A 0.33 0.32 -45.6 0 0 84.29 90.60
  Q 49.70 128.61 43.25 178.66
  Q 41.95 188.77 42.05 198.73
  C 42.46 240.79 58.05 278.18 86.74 308.57
  Q 87.13 308.99 87.55 308.59
  L 115.32 281.57
  Q 115.69 281.20 115.33 280.82
  Z"
/>
</svg>
