<?xml version="1.0" encoding="UTF-8" standalone="no"?>
<!DOCTYPE svg PUBLIC "-//W3C//DTD SVG 1.1//EN" "http://www.w3.org/Graphics/SVG/1.1/DTD/svg11.dtd">
<svg xmlns="http://www.w3.org/2000/svg" version="1.1" viewBox="0.00 0.00 1621.00 234.00">
<path fill="#ffffff" d="
  M 103.18 92.25
  Q 130.30 65.63 156.48 40.18
  C 156.97 39.71 157.39 39.16 157.71 38.57
  Q 158.02 38.00 158.50 38.43
  C 162.47 41.90 166.49 45.00 170.11 48.84
  C 205.75 86.71 205.10 144.13 167.94 180.74
  C 164.25 184.37 160.38 187.30 156.40 190.57
  Q 155.97 190.92 155.63 190.47
  C 155.19 189.85 154.79 189.28 154.23 188.73
  Q 135.58 170.57 116.97 152.42
  Q 116.48 151.94 117.13 151.71
  C 137.98 144.09 147.93 121.03 141.07 100.49
  A 0.88 0.87 58.9 0 1 141.29 99.59
  L 153.65 87.68
  A 0.41 0.40 -34.9 0 1 154.29 87.79
  C 165.42 110.10 161.33 135.74 144.28 153.85
  Q 144.01 154.13 144.29 154.40
  L 157.68 167.32
  Q 158.01 167.64 158.34 167.30
  C 186.58 137.45 187.45 91.96 159.62 61.37
  A 0.51 0.50 -43.1 0 0 158.89 61.35
  L 103.33 115.65
  Q 102.93 116.05 102.52 115.66
  L 47.05 61.45
  A 0.69 0.68 43.0 0 0 46.07 61.48
  C 18.60 92.08 19.07 137.27 47.48 167.28
  Q 47.85 167.66 48.23 167.30
  L 61.58 154.35
  Q 61.91 154.03 61.58 153.71
  Q 53.27 145.49 49.09 134.23
  Q 40.49 111.01 51.49 87.75
  A 0.38 0.38 0.0 0 1 52.10 87.63
  L 64.39 99.42
  A 1.38 1.37 -58.2 0 1 64.73 100.89
  C 58.50 118.19 65.40 136.59 79.96 147.12
  C 82.56 149.01 85.71 150.47 88.64 151.75
  Q 89.25 152.01 88.77 152.48
  L 50.00 190.33
  Q 49.70 190.63 49.35 190.38
  C 26.91 173.97 10.83 148.18 10.05 120.16
  C 9.71 108.18 9.98 97.80 13.54 86.50
  Q 22.40 58.35 45.54 40.04
  Q 46.39 39.37 47.11 38.48
  Q 47.45 38.07 47.85 38.42
  Q 48.65 39.14 49.54 40.04
  Q 74.62 65.10 102.78 92.25
  A 0.29 0.29 0.0 0 0 103.18 92.25
  Z"
/>
<path fill="#ffffff" d="
  M 390.85 101.55
  L 359.29 170.58
  A 0.30 0.30 0.0 0 1 359.02 170.76
  L 336.97 170.71
  A 0.30 0.30 0.0 0 1 336.70 170.54
  L 305.20 101.65
  A 0.30 0.30 0.0 0 0 304.63 101.78
  L 304.67 170.44
  A 0.30 0.30 0.0 0 1 304.37 170.74
  L 282.06 170.73
  A 0.30 0.30 0.0 0 1 281.76 170.43
  L 281.76 59.73
  A 0.30 0.30 0.0 0 1 282.06 59.43
  L 306.06 59.35
  A 0.30 0.30 0.0 0 1 306.33 59.52
  L 347.74 148.63
  A 0.30 0.30 0.0 0 0 348.28 148.63
  L 389.65 59.52
  A 0.30 0.30 0.0 0 1 389.92 59.35
  L 413.76 59.47
  A 0.30 0.30 0.0 0 1 414.06 59.77
  L 414.02 170.44
  A 0.30 0.30 0.0 0 1 413.72 170.74
  L 391.65 170.71
  A 0.30 0.30 0.0 0 1 391.35 170.41
  L 391.42 101.67
  A 0.30 0.30 0.0 0 0 390.85 101.55
  Z"
/>
<circle fill="#ffffff" cx="1504.14" cy="73.29" r="13.64"/>
<path fill="#ffffff" d="
  M 889.45 113.17
  C 899.15 116.95 906.55 124.07 908.15 134.54
  Q 911.31 155.16 893.71 165.98
  C 885.24 171.20 874.68 172.90 864.50 172.93
  Q 837.73 173.01 811.03 172.99
  A 0.28 0.27 0.0 0 1 810.75 172.72
  L 810.75 62.04
  Q 810.75 61.51 811.28 61.51
  Q 838.64 61.44 860.31 61.55
  C 869.55 61.60 878.65 62.62 886.93 66.17
  C 899.29 71.47 904.52 83.05 902.78 95.89
  C 901.76 103.42 896.31 109.10 889.42 112.45
  Q 888.62 112.84 889.45 113.17
  Z
  M 833.45 80.93
  L 833.53 105.81
  A 0.28 0.28 0.0 0 0 833.81 106.09
  L 864.91 105.98
  A 16.16 11.41 -0.2 0 0 881.03 94.52
  L 881.03 91.90
  A 16.16 11.41 -0.2 0 0 864.83 80.54
  L 833.73 80.65
  A 0.28 0.28 0.0 0 0 833.45 80.93
  Z
  M 833.47 125.32
  L 833.51 153.72
  A 0.27 0.27 0.0 0 0 833.79 153.99
  L 866.63 153.94
  A 17.71 12.86 -0.1 0 0 884.31 141.05
  L 884.31 137.83
  A 17.71 12.86 -0.1 0 0 866.57 125.00
  L 833.73 125.05
  A 0.27 0.27 0.0 0 0 833.47 125.32
  Z"
/>
<path fill="#ffffff" d="
  M 940.25 148.55
  C 940.25 151.55 941.49 154.01 944.87 154.01
  Q 948.25 154.01 951.70 153.98
  Q 952.25 153.98 952.25 154.53
  L 952.25 172.32
  Q 952.25 172.97 951.59 172.99
  Q 944.65 173.15 938.04 172.62
  Q 932.52 172.17 927.65 170.33
  C 919.36 167.20 917.82 157.93 917.81 150.00
  Q 917.75 105.86 917.75 61.79
  Q 917.75 61.50 918.04 61.50
  L 939.71 61.50
  Q 940.25 61.50 940.25 62.03
  Q 940.22 130.18 940.25 148.55
  Z"
/>
<path fill="#ffffff" d="
  M 1165.30 125.61
  L 1192.93 95.11
  A 0.32 0.32 0.0 0 1 1193.17 95.01
  L 1218.84 94.99
  A 0.32 0.32 0.0 0 1 1219.08 95.53
  L 1189.59 127.71
  A 0.32 0.32 0.0 0 0 1189.57 128.12
  L 1222.70 172.50
  A 0.32 0.32 0.0 0 1 1222.44 173.01
  L 1198.47 172.99
  A 0.32 0.32 0.0 0 1 1198.21 172.86
  L 1175.80 143.48
  A 0.32 0.32 0.0 0 0 1175.31 143.46
  L 1164.83 154.91
  A 0.32 0.32 0.0 0 0 1164.75 155.12
  L 1164.74 172.68
  A 0.32 0.32 0.0 0 1 1164.42 173.00
  L 1142.57 173.00
  A 0.32 0.32 0.0 0 1 1142.25 172.68
  L 1142.26 61.81
  A 0.32 0.32 0.0 0 1 1142.58 61.49
  L 1164.43 61.50
  A 0.32 0.32 0.0 0 1 1164.75 61.82
  L 1164.74 125.39
  A 0.32 0.32 0.0 0 0 1165.30 125.61
  Z"
/>
<path fill="#ffffff" d="
  M 1329.25 103.29
  Q 1329.25 104.19 1329.79 103.47
  Q 1336.64 94.57 1348.21 93.43
  Q 1358.16 92.46 1367.62 95.14
  C 1383.30 99.58 1387.68 115.98 1387.72 130.34
  Q 1387.78 151.79 1387.74 172.72
  A 0.28 0.28 0.0 0 1 1387.46 173.00
  L 1365.80 173.00
  Q 1365.23 173.00 1365.23 172.43
  Q 1365.30 150.71 1365.21 130.31
  Q 1365.18 124.87 1363.25 119.89
  C 1360.07 111.66 1351.77 109.82 1343.88 111.63
  C 1331.76 114.40 1329.30 126.84 1329.27 138.13
  Q 1329.23 155.24 1329.26 172.31
  A 0.69 0.69 0.0 0 1 1328.57 173.00
  L 1307.25 173.00
  Q 1306.75 173.00 1306.75 172.50
  L 1306.75 62.00
  Q 1306.75 61.50 1307.25 61.50
  L 1328.75 61.50
  Q 1329.25 61.50 1329.25 62.00
  L 1329.25 103.29
  Z"
/>
<path fill="#ffffff" d="
  M 481.92 162.31
  Q 473.65 170.79 461.65 172.07
  C 445.92 173.74 425.56 171.14 423.33 151.58
  C 421.52 135.69 436.50 127.86 449.50 124.70
  Q 463.31 121.35 479.63 120.74
  A 0.81 0.81 0.0 0 0 480.41 119.91
  Q 480.16 109.91 470.09 108.16
  C 463.66 107.04 455.12 107.55 450.86 112.87
  Q 450.42 113.42 450.35 114.11
  L 450.21 115.38
  Q 450.12 116.14 449.36 116.14
  L 427.48 116.11
  A 0.67 0.67 0.0 0 1 426.83 115.28
  Q 428.83 106.75 434.98 100.58
  C 440.27 95.27 449.59 92.36 456.99 91.48
  C 476.63 89.16 502.39 94.10 502.33 119.49
  Q 502.30 133.62 502.57 147.76
  C 502.65 151.77 505.44 151.82 508.52 151.89
  Q 509.08 151.90 509.08 152.46
  L 509.15 170.02
  Q 509.15 170.59 508.58 170.62
  Q 500.86 170.97 493.54 169.67
  C 488.82 168.83 485.49 166.47 482.93 162.42
  Q 482.49 161.73 481.92 162.31
  Z
  M 479.68 134.70
  C 471.11 135.34 461.99 136.26 454.11 139.11
  Q 449.01 140.95 446.96 145.48
  C 444.14 151.68 450.04 155.24 455.28 155.86
  Q 466.21 157.15 475.27 150.01
  C 479.91 146.35 480.60 140.89 480.33 135.27
  Q 480.30 134.65 479.68 134.70
  Z"
/>
<path fill="#ffffff" d="
  M 699.51 138.54
  Q 698.40 138.54 698.66 139.62
  Q 701.20 150.37 711.03 153.62
  Q 718.66 156.13 726.80 153.47
  C 730.18 152.36 732.71 149.95 734.67 147.07
  A 0.75 0.74 16.7 0 1 735.29 146.74
  L 756.45 146.54
  A 0.68 0.68 0.0 0 1 757.10 147.46
  C 754.60 154.36 750.07 161.74 743.80 165.61
  C 733.48 171.97 722.21 173.57 710.38 171.97
  Q 702.76 170.93 697.01 167.85
  C 680.27 158.88 674.50 142.07 677.22 123.98
  C 680.01 105.49 692.99 93.49 711.36 91.41
  C 742.32 87.92 761.15 106.93 758.31 138.02
  Q 758.26 138.54 757.74 138.54
  L 699.51 138.54
  Z
  M 699.27 123.65
  L 736.96 123.33
  A 0.15 0.15 0.0 0 0 737.11 123.17
  L 737.11 123.08
  A 18.49 14.50 -0.5 0 0 718.50 108.75
  L 717.48 108.75
  A 18.49 14.50 -0.5 0 0 699.11 123.42
  L 699.11 123.51
  A 0.15 0.15 0.0 0 0 699.27 123.65
  Z"
/>
<path fill="#ffffff" d="
  M 560.36 112.64
  Q 561.37 111.76 560.03 111.76
  L 518.92 111.76
  Q 518.32 111.76 518.33 111.17
  L 518.35 93.55
  Q 518.35 92.95 518.95 92.95
  L 589.85 92.97
  Q 590.84 92.97 590.88 93.96
  Q 591.16 101.58 590.95 108.50
  C 590.90 110.09 590.64 111.30 589.38 112.41
  Q 569.48 130.11 547.49 149.58
  Q 546.97 150.04 546.36 150.42
  Q 544.17 151.78 546.75 151.78
  L 592.95 151.77
  Q 593.38 151.77 593.37 152.20
  L 593.30 169.83
  A 0.88 0.88 0.0 0 1 592.42 170.71
  L 516.99 170.76
  A 0.77 0.77 0.0 0 1 516.22 169.99
  L 516.23 152.74
  A 2.33 2.31 69.5 0 1 517.01 151.00
  L 560.36 112.64
  Z"
/>
<path fill="#ffffff" d="
  M 642.50 112.47
  Q 643.30 111.76 642.23 111.76
  L 600.89 111.76
  Q 600.26 111.76 600.26 111.14
  L 600.25 93.44
  Q 600.25 92.89 600.81 92.89
  L 672.20 93.00
  Q 672.77 93.00 672.77 93.57
  L 672.76 110.49
  Q 672.76 111.10 672.31 111.50
  Q 650.50 130.96 628.50 150.35
  Q 628.15 150.66 627.71 150.75
  Q 627.24 150.85 627.38 151.31
  Q 627.52 151.79 628.00 151.79
  Q 651.50 151.75 674.94 151.79
  A 0.21 0.21 0.0 0 1 675.15 152.00
  L 675.23 170.24
  A 0.47 0.47 0.0 0 1 674.76 170.72
  L 598.78 170.75
  A 0.73 0.73 0.0 0 1 598.05 170.02
  L 598.05 153.00
  A 2.71 2.70 -20.8 0 1 598.97 150.97
  L 642.50 112.47
  Z"
/>
<path fill="#ffffff" d="
  M 956.13 124.87
  C 959.61 107.05 974.44 95.63 991.99 93.65
  C 1002.86 92.42 1015.01 93.53 1024.34 98.98
  Q 1040.03 108.14 1043.33 126.15
  C 1044.98 135.13 1043.72 145.97 1039.15 154.04
  Q 1029.86 170.44 1010.09 173.82
  C 997.33 176.01 982.30 174.45 971.82 166.91
  C 958.13 157.05 952.94 141.18 956.13 124.87
  Z
  M 1020.8021 130.5240
  A 19.35 19.35 0.0 0 0 1001.5197 111.1065
  L 997.8597 111.0938
  A 19.35 19.35 0.0 0 0 978.4423 130.3761
  L 978.4179 137.3560
  A 19.35 19.35 0.0 0 0 997.7003 156.7735
  L 1001.3603 156.7862
  A 19.35 19.35 0.0 0 0 1020.7777 137.5039
  L 1020.8021 130.5240
  Z"
/>
<path fill="#ffffff" d="
  M 1074.79 126.71
  C 1072.20 141.36 1078.08 158.70 1096.08 156.88
  Q 1107.89 155.68 1111.24 144.04
  A 0.75 0.75 0.0 0 1 1111.96 143.50
  L 1133.46 143.50
  Q 1134.00 143.50 1133.95 144.04
  C 1133.64 147.95 1132.13 151.35 1130.46 154.83
  Q 1125.72 164.71 1117.07 169.20
  C 1106.44 174.72 1095.03 175.83 1083.25 173.76
  C 1062.02 170.02 1051.40 154.14 1051.32 133.01
  Q 1051.30 127.90 1052.25 123.73
  Q 1057.83 99.05 1083.15 94.17
  Q 1095.38 91.81 1108.92 94.90
  Q 1125.76 98.75 1132.61 114.73
  Q 1133.83 117.57 1134.10 120.66
  Q 1134.15 121.25 1133.56 121.25
  L 1112.01 121.25
  Q 1111.46 121.25 1111.25 120.75
  Q 1107.72 112.37 1097.56 111.15
  C 1086.04 109.77 1076.90 114.75 1074.79 126.71
  Z"
/>
<path fill="#ffffff" d="
  M 1298.56 143.92
  C 1297.50 152.58 1291.74 162.24 1285.80 166.52
  C 1274.94 174.36 1261.40 176.02 1248.16 173.82
  C 1229.45 170.71 1218.00 157.62 1216.15 138.97
  C 1214.09 118.07 1223.80 99.59 1245.12 94.70
  C 1257.87 91.77 1273.72 92.73 1285.21 99.77
  C 1289.68 102.50 1293.57 107.75 1296.12 112.37
  Q 1298.12 116.00 1298.66 120.73
  Q 1298.72 121.25 1298.20 121.25
  L 1276.50 121.25
  Q 1276.00 121.25 1275.80 120.78
  C 1272.62 113.10 1265.01 110.56 1257.18 110.96
  C 1242.63 111.70 1237.96 123.30 1238.84 136.09
  C 1239.61 147.32 1245.57 156.54 1257.86 157.00
  C 1266.13 157.32 1274.00 152.52 1275.59 144.22
  Q 1275.73 143.50 1276.47 143.50
  L 1298.20 143.51
  A 0.37 0.36 -86.5 0 1 1298.56 143.92
  Z"
/>
<path fill="#ffffff" d="
  M 1452.30 122.37
  C 1452.61 112.43 1445.03 109.88 1436.74 109.87
  C 1431.14 109.87 1423.04 111.47 1422.03 117.72
  Q 1421.95 118.25 1421.41 118.25
  L 1399.82 118.25
  Q 1398.74 118.25 1399.01 117.21
  Q 1402.80 102.30 1416.08 97.06
  C 1426.85 92.80 1438.35 92.29 1449.80 94.31
  C 1459.72 96.06 1468.39 101.16 1472.46 110.77
  Q 1474.40 115.35 1474.47 126.40
  Q 1474.53 136.56 1474.49 150.00
  Q 1474.48 152.34 1476.31 153.51
  C 1477.56 154.32 1479.26 153.93 1480.72 153.97
  Q 1481.25 153.99 1481.25 154.52
  L 1481.25 172.45
  Q 1481.25 172.95 1480.75 172.97
  Q 1472.92 173.25 1465.33 171.74
  Q 1458.09 170.31 1454.98 164.41
  Q 1454.68 163.85 1454.26 164.31
  C 1446.87 172.34 1436.22 174.76 1425.51 174.72
  C 1413.41 174.68 1399.69 170.89 1396.13 157.56
  C 1391.64 140.74 1404.99 131.52 1418.93 127.62
  Q 1433.81 123.46 1451.68 122.98
  Q 1452.28 122.97 1452.30 122.37
  Z
  M 1428.93 158.17
  C 1438.27 158.69 1452.74 153.18 1452.27 141.56
  Q 1452.19 139.50 1452.31 137.51
  Q 1452.34 136.93 1451.76 136.96
  Q 1441.44 137.34 1429.90 139.98
  C 1424.31 141.26 1418.31 144.67 1418.37 151.06
  C 1418.42 156.12 1424.77 157.94 1428.93 158.17
  Z"
/>
<path fill="#ffffff" d="
  M 1551.65 104.44
  Q 1558.83 94.45 1571.22 93.41
  Q 1580.54 92.62 1589.03 94.84
  Q 1602.23 98.29 1607.04 111.74
  Q 1610.07 120.21 1610.15 129.13
  Q 1610.35 149.48 1610.22 172.48
  Q 1610.22 173.00 1609.70 173.00
  L 1588.04 173.00
  A 0.29 0.28 90.0 0 1 1587.76 172.71
  Q 1587.74 152.82 1587.76 132.96
  Q 1587.77 126.74 1586.19 121.28
  C 1583.63 112.44 1575.65 109.92 1567.30 111.42
  C 1555.49 113.54 1551.89 124.77 1551.80 135.65
  Q 1551.67 153.06 1551.78 172.50
  A 0.50 0.49 -0.6 0 1 1551.28 173.00
  L 1529.50 173.00
  A 0.25 0.25 0.0 0 1 1529.25 172.75
  L 1529.25 95.50
  Q 1529.25 95.00 1529.75 95.00
  L 1550.37 95.00
  Q 1551.00 95.00 1551.00 95.63
  L 1551.00 104.23
  Q 1551.00 105.33 1551.65 104.44
  Z"
/>
<rect fill="#ffffff" x="1493.00" y="95.00" width="22.24" height="78.00" rx="0.34"/>
</svg>
